<?xml version="1.0" encoding="utf-8"?>
<!-- Generator: Adobe Illustrator 22.0.0, SVG Export Plug-In . SVG Version: 6.00 Build 0)  -->
<svg version="1.1" id="Layer_1" xmlns="http://www.w3.org/2000/svg" xmlns:xlink="http://www.w3.org/1999/xlink" x="0px" y="0px"
	 viewBox="0 0 136 184.3" style="enable-background:new 0 0 136 184.3;" xml:space="preserve">
<style type="text/css">
	.st0{display:none;fill:#DF134C;}
	.st1{fill:#DF134C;}
	.st2{fill:#FFFFFF;}
	.st3{clip-path:url(#SVGID_3_);fill:#FFFFFF;}
</style>
<path class="st0" d="M195.5,48.9H209v8.5h-13.5V48.9L195.5,48.9z M195.5,61.4H209v32.8h-13.5V61.4L195.5,61.4z"/>
<path class="st0" d="M231.7,48.9v12.5h7.4v9.2h-7.4v11.6c0,1.4,0.1,2.3,0.4,2.8c0.4,0.7,1.2,1,2.3,1c1,0,2.4-0.3,4.2-0.8l1,8.7
	c-3.3,0.7-6.4,1-9.3,1c-3.4,0-5.8-0.4-7.4-1.2c-1.6-0.8-2.8-2-3.5-3.6c-0.8-1.6-1.1-4.3-1.1-8V70.5h-5v-9.2h5v-6L231.7,48.9
	L231.7,48.9z"/>
<path class="st0" d="M240.7,61.4h12.9l6.6,21.8l6.1-21.8h12l-12.6,35c-1.4,4-2.9,6.7-4.4,8.1c-2.1,2-5.3,3-9.7,3
	c-1.8,0-4.5-0.2-8.1-0.7l-1-8.8c1.8,0.6,3.7,0.9,5.9,0.9c1.4,0,2.6-0.3,3.5-1c0.9-0.7,1.7-1.9,2.3-3.6L240.7,61.4L240.7,61.4z"/>
<path class="st0" d="M346.7,77.9c0-5,1.8-9.1,5.4-12.3c3.6-3.3,8.5-4.9,14.7-4.9c7,0,12.4,1.9,16,5.7c2.9,3.1,4.3,6.8,4.3,11.3
	c0,5-1.8,9.2-5.4,12.4c-3.6,3.2-8.5,4.8-14.9,4.8c-5.7,0-10.2-1.3-13.7-4C348.9,87.6,346.7,83.2,346.7,77.9L346.7,77.9z M360.3,77.8
	c0,2.9,0.6,5.1,1.9,6.5c1.3,1.4,2.9,2.1,4.8,2.1c1.9,0,3.5-0.7,4.8-2.1c1.3-1.4,1.9-3.6,1.9-6.6c0-2.8-0.6-4.9-1.9-6.3
	c-1.3-1.4-2.8-2.1-4.7-2.1c-2,0-3.6,0.7-4.9,2.1C360.9,72.8,360.3,74.9,360.3,77.8L360.3,77.8z"/>
<polygon class="st0" points="389.2,48.9 402.7,48.9 402.7,94.2 389.2,94.2 "/>
<polygon class="st0" points="406.1,48.9 419.7,48.9 419.7,94.2 406.1,94.2 "/>
<path class="st0" d="M463.7,80.9h-27c0.2,2,0.8,3.5,1.8,4.5c1.3,1.4,3,2.1,5.1,2.1c1.3,0,2.6-0.3,3.8-0.9c0.7-0.4,1.5-1.1,2.4-2.1
	l13.3,1.1c-2,3.3-4.5,5.7-7.3,7.1c-2.9,1.4-7,2.1-12.4,2.1c-4.7,0-8.3-0.6-11-1.8c-2.7-1.2-4.9-3.2-6.7-5.8
	c-1.7-2.7-2.6-5.8-2.6-9.4c0-5.1,1.8-9.3,5.3-12.4c3.5-3.2,8.4-4.7,14.6-4.8c5,0,9,0.7,11.9,2.1c2.9,1.4,5.1,3.5,6.7,6.2
	c1.5,2.7,2.3,6.2,2.3,10.5L463.7,80.9L463.7,80.9z M450,74.9c-0.3-2.4-1-4.2-2.1-5.2c-1.1-1-2.6-1.6-4.5-1.6c-2.1,0-3.9,0.8-5.1,2.4
	c-0.8,1-1.3,2.5-1.6,4.4L450,74.9L450,74.9z"/>
<path class="st0" d="M490.2,61.4h12.6v31l0,1.5c0,2.1-0.5,4-1.4,5.9c-0.9,1.9-2.2,3.4-3.7,4.5c-1.5,1.2-3.5,2-5.9,2.5
	c-2.4,0.5-5.1,0.8-8.2,0.8c-7.1,0-11.9-1-14.6-3c-2.6-2-3.9-4.6-3.9-7.9c0-0.4,0-1,0.1-1.7l13.1,1.4c0.3,1.1,0.8,1.9,1.5,2.3
	c1,0.6,2.2,1,3.7,1c1.9,0,3.4-0.5,4.3-1.5c1-1,1.5-2.7,1.5-5.1v-5c-1.3,1.5-2.7,2.5-4,3.2c-2.1,1-4.3,1.5-6.7,1.5
	c-4.7,0-8.5-1.9-11.4-5.7c-2.1-2.7-3.1-6.3-3.1-10.8c0-5.1,1.3-9,4-11.7c2.6-2.7,6.1-4,10.4-4c2.7,0,5,0.4,6.8,1.3
	c1.8,0.9,3.5,2.3,5,4.3L490.2,61.4L490.2,61.4z M477.5,77.3c0,2.4,0.5,4.1,1.6,5.3c1.1,1.1,2.5,1.7,4.3,1.7c1.7,0,3.1-0.6,4.2-1.8
	c1.1-1.2,1.7-3,1.7-5.4c0-2.4-0.6-4.2-1.8-5.5c-1.2-1.3-2.6-1.9-4.4-1.9c-1.7,0-3.1,0.6-4.1,1.8C478,72.7,477.5,74.6,477.5,77.3
	L477.5,77.3z"/>
<path class="st0" d="M545,80.9h-27c0.2,2,0.8,3.5,1.8,4.5c1.3,1.4,3,2.1,5.1,2.1c1.3,0,2.6-0.3,3.8-0.9c0.7-0.4,1.5-1.1,2.3-2.1
	l13.3,1.1c-2,3.3-4.5,5.7-7.4,7.1c-2.9,1.4-7,2.1-12.4,2.1c-4.7,0-8.3-0.6-11-1.8c-2.7-1.2-4.9-3.2-6.7-5.8
	c-1.7-2.7-2.6-5.8-2.6-9.4c0-5.1,1.8-9.3,5.3-12.4c3.5-3.2,8.4-4.7,14.6-4.8c5,0,9,0.7,11.9,2.1c2.9,1.4,5.1,3.5,6.7,6.2
	c1.5,2.7,2.3,6.2,2.3,10.5L545,80.9L545,80.9z M531.3,74.9c-0.3-2.4-1-4.2-2.1-5.2c-1.1-1-2.6-1.6-4.5-1.6c-2.1,0-3.8,0.8-5.1,2.4
	c-0.8,1-1.3,2.5-1.6,4.4L531.3,74.9L531.3,74.9z"/>
<path class="st0" d="M177.3,76.3l12.8,0c0.4,4.4-1.7,10.2-3.6,12.6c-1.9,2.4-4.4,4.1-7.3,5.3c-2.9,1.2-6.5,1.8-11,1.8
	c-5.4,0-9.8-0.7-13.3-2.2c-3.4-1.5-6.4-4.1-8.9-7.7c-2.5-3.7-3.7-8.4-3.7-14.2c0-7.7,2.2-13.6,6.5-17.7c4.4-4.1,10.6-6.2,18.6-6.2
	c6.3,0,11.2,1.2,14.8,3.5c3.6,2.4,6.1,8.8,7.8,13.7l-13.4,0c-0.5-1.4-1-2.4-1.5-3.1c-0.9-1.1-1.9-1.9-3.2-2.5
	c-1.2-0.6-2.6-0.9-4.2-0.9c-3.5,0-6.1,1.3-8,3.9c-1.4,1.9-2.1,5-2.1,9.1c0,5.1,0.8,8.7,2.5,10.6c1.7,1.9,4,2.8,7.1,2.8
	c2.9,0,5.2-0.8,6.6-2.3C175.5,81.5,176.6,79.3,177.3,76.3L177.3,76.3z"/>
<path class="st0" d="M331.4,76.3l12.8,0c0.4,4.4-1.7,10.2-3.6,12.6c-1.9,2.4-4.4,4.1-7.3,5.3c-2.9,1.2-6.5,1.8-11,1.8
	c-5.4,0-9.8-0.7-13.3-2.2c-3.4-1.5-6.4-4.1-8.9-7.7c-2.5-3.7-3.7-8.4-3.7-14.2c0-7.7,2.2-13.6,6.5-17.7c4.4-4.1,10.6-6.2,18.6-6.2
	c6.3,0,11.2,1.2,14.8,3.5c3.6,2.4,6.1,8.8,7.8,13.7l-13.4,0c-0.5-1.4-1-2.4-1.5-3.1c-0.9-1.1-1.9-1.9-3.2-2.5
	c-1.2-0.6-2.6-0.9-4.2-0.9c-3.5,0-6.2,1.3-8,3.9c-1.4,1.9-2.1,5-2.1,9.1c0,5.1,0.8,8.7,2.5,10.6c1.7,1.9,4,2.8,7.1,2.8
	c2.9,0,5.2-0.8,6.7-2.3C329.6,81.5,330.7,79.3,331.4,76.3L331.4,76.3z"/>
<g>
	<path class="st1" d="M0,76.9C0,42.7,27.7,15,61.8,15c34.2,0,61.9,27.7,61.9,61.8c0,34.2-27.7,61.9-61.9,61.9
		C27.7,138.7,0,111,0,76.9L0,76.9z"/>
	<path class="st2" d="M12.2,77.1c0-25.6,20.7-46.4,46.3-46.4c25.6,0,46.4,20.8,46.4,46.4c0,25.6-20.8,46.3-46.4,46.3
		C32.9,123.5,12.2,102.7,12.2,77.1L12.2,77.1z"/>
	<path class="st1" d="M22,77.3C22,51.7,42.8,31,68.4,31c25.6,0,46.4,20.8,46.4,46.4c0,25.6-20.8,46.4-46.4,46.4S22,102.9,22,77.3
		L22,77.3z"/>
	<path class="st2" d="M32.3,76.6c0-18.4,14.9-33.2,33.2-33.2c18.4,0,33.2,14.9,33.2,33.2s-14.9,33.2-33.2,33.2
		C47.2,109.8,32.3,94.9,32.3,76.6L32.3,76.6z"/>
	<path class="st1" d="M41.1,76.9c0-18.4,14.9-33.2,33.2-33.2c18.4,0,33.2,14.9,33.2,33.2c0,18.4-14.9,33.2-33.2,33.2
		C55.9,110.1,41.1,95.2,41.1,76.9L41.1,76.9z"/>
	<polygon class="st2" points="73.1,99.6 123.3,102.6 101.4,184.3 	"/>
	<polygon class="st1" points="66.5,26.9 61.4,128.7 73.5,127.9 68.6,74.4 81.6,25.9 	"/>
	<g>
		<g>
			<path id="SVGID_1_" class="st1" d="M103.6,178.3c-0.4,0-0.6-0.9-0.6-0.9L76.4,88.1l51,1.6l-23.2,87.8
				C104.2,177.5,104,178.3,103.6,178.3L103.6,178.3z"/>
		</g>
		<g>
			<defs>
				<path id="SVGID_2_" d="M103.6,178.3c-0.4,0-0.6-0.9-0.6-0.9L76.4,88.1l51,1.6l-23.2,87.8C104.2,177.5,104,178.3,103.6,178.3
					L103.6,178.3z"/>
			</defs>
			<clipPath id="SVGID_3_">
				<use xlink:href="#SVGID_2_"  style="overflow:visible;"/>
			</clipPath>
			<path class="st3" d="M77.6,104.1c0-4.4,4.8-24.3,24.9-22.8c20.9,1.6,22.6,19.5,22.6,23.9c0,4.4-11.6,7.7-23.8,7.6
				C88.9,112.8,77.6,108.5,77.6,104.1L77.6,104.1z"/>
		</g>
	</g>
	<path class="st1" d="M61.6,96.3c0-7.3,16.6-13,37.1-12.9c20.6,0.1,37.2,6.1,37.3,13.3c0,7.3-16.6,13-37.1,12.9
		C78.3,109.5,61.6,103.6,61.6,96.3L61.6,96.3z"/>
	<path class="st2" d="M72.5,91.6c0-3.8,12.5-6.9,28.1-6.8c15.5,0.1,28.1,3.3,28.1,7.1c0,3.8-12.5,6.9-28.1,6.8
		C85.1,98.6,72.5,95.4,72.5,91.6L72.5,91.6z"/>
	<path class="st2" d="M97.4,26.2c14.4,8.4,22.7,23.5,22.7,42.6c0,1.6,5.6,3.8,5.4,5.4c3.8-14.7,14.4,21.3-13.1,23
		c-0.6,0-26.8-1.2-31-2.4c-7-9-9.7-29.9-4.3-41.7C83,40.2,96,42.6,97.4,26.2L97.4,26.2z"/>
	<path class="st1" d="M92,0c1.7,3,3.9,4.6,3.7,8.1C95,23.9,77.6,43.7,79.9,64.6c1.5,13.7,2.8,16.1,15.9,30.5
		c-6.7-9.5-9-16.8-9.1-28.4c0-8.2,1-13.1,4.4-20.6c-0.5,6.7,4.8,15.4,7.9,16.6c4.6,1.8,10.4-0.1,13.7-4.6c3.3,0.9-0.4,23.2-2.8,24.7
		c-3.7,2.3,14.5-4.9,16.9-10.1l0.5,8.8c3.3-2.5,4.9-4.9,5.9-8.9c1.4-5.4-2.8-14.6-3.1-14c-0.7,1.5,1.4,9.5-7.4,11.1
		c2.6-5.1,0.9-11.8-2.2-18.2c-2.6-5.4-6-10.2-11.9-15.6c1,5.6,1.3,15.5-7.4,13.8c-6.9-1.4-5.2-10.6-4.4-17.5
		c1.2-10,7.5-20.6,3.7-27.4C98.6,1.4,95.7,0.9,92,0L92,0z"/>
	<path class="st1" d="M107.7,65.6c-1.4,3.1-4.1,5.1-7.5,4.6c-2.9-0.5-6.9-6.5-7-11.1c-1.5,7-1.4,11.5,0.6,18.4
		c1.3,4.4,2.4,6.9,5,10.7c0-1-0.5-1.9,0.2-2.7c1.8-1.9,5-4.7,6.7-8.6C107.7,72.8,108.1,70.1,107.7,65.6L107.7,65.6z"/>
	<path class="st1" d="M88.6,20.8c1.9-2.5,2.5-4.5,2.3-7.6c-0.2-3.1-3.2-4.2-3.3-7.3c-0.1-2.2,0.2-3.6,1.3-5.5
		c-3.5,0.8-5.7,2.8-6.7,6.2c-1.3,4.4,2.6,6.7,4.6,10.8C87.5,18.8,87.9,19.5,88.6,20.8L88.6,20.8z"/>
	<path class="st1" d="M124.1,81c-3,1.9-4.9,2.9-8.2,4.3c-3.8,1.6-7.2,0.2-10.1,3.1c-1.8,1.9-2.6,3.5-3,6.1c1.3-2.2,2.6-3.4,4.9-4.5
		c2.1-1,3.6-1.2,5.9-0.9l-1.2,3.7c4.1-0.1,6.8-1.4,9.3-4.6c1.9-2.4,2.6-4.4,2.6-7.6L124.1,81L124.1,81z"/>
	<path class="st2" d="M50.8,34.1"/>
</g>
</svg>
